<svg width="308" height="60" viewBox="0 0 308 60" fill="none" xmlns="http://www.w3.org/2000/svg">
<rect x="42" y="7" width="222" height="46" rx="4" fill="url(#paint0_linear_216_33)"/>
<path d="M72.5455 36.216C71.5735 36.216 70.6675 36.06 69.8275 35.748C68.9995 35.424 68.2795 34.968 67.6675 34.38C67.0555 33.792 66.5755 33.102 66.2275 32.31C65.8915 31.518 65.7235 30.648 65.7235 29.7C65.7235 28.752 65.8915 27.882 66.2275 27.09C66.5755 26.298 67.0555 25.608 67.6675 25.02C68.2915 24.432 69.0175 23.982 69.8455 23.67C70.6735 23.346 71.5795 23.184 72.5635 23.184C73.6555 23.184 74.6395 23.376 75.5155 23.76C76.4035 24.132 77.1475 24.684 77.7475 25.416L75.8755 27.144C75.4435 26.652 74.9635 26.286 74.4355 26.046C73.9075 25.794 73.3315 25.668 72.7075 25.668C72.1195 25.668 71.5795 25.764 71.0875 25.956C70.5955 26.148 70.1695 26.424 69.8095 26.784C69.4495 27.144 69.1675 27.57 68.9635 28.062C68.7715 28.554 68.6755 29.1 68.6755 29.7C68.6755 30.3 68.7715 30.846 68.9635 31.338C69.1675 31.83 69.4495 32.256 69.8095 32.616C70.1695 32.976 70.5955 33.252 71.0875 33.444C71.5795 33.636 72.1195 33.732 72.7075 33.732C73.3315 33.732 73.9075 33.612 74.4355 33.372C74.9635 33.12 75.4435 32.742 75.8755 32.238L77.7475 33.966C77.1475 34.698 76.4035 35.256 75.5155 35.64C74.6395 36.024 73.6495 36.216 72.5455 36.216ZM85.573 36.216C84.577 36.216 83.653 36.054 82.801 35.73C81.961 35.406 81.229 34.95 80.605 34.362C79.993 33.774 79.513 33.084 79.165 32.292C78.829 31.5 78.661 30.636 78.661 29.7C78.661 28.764 78.829 27.9 79.165 27.108C79.513 26.316 79.999 25.626 80.623 25.038C81.247 24.45 81.979 23.994 82.819 23.67C83.659 23.346 84.571 23.184 85.555 23.184C86.551 23.184 87.463 23.346 88.291 23.67C89.131 23.994 89.857 24.45 90.469 25.038C91.093 25.626 91.579 26.316 91.927 27.108C92.275 27.888 92.449 28.752 92.449 29.7C92.449 30.636 92.275 31.506 91.927 32.31C91.579 33.102 91.093 33.792 90.469 34.38C89.857 34.956 89.131 35.406 88.291 35.73C87.463 36.054 86.557 36.216 85.573 36.216ZM85.555 33.732C86.119 33.732 86.635 33.636 87.103 33.444C87.583 33.252 88.003 32.976 88.363 32.616C88.723 32.256 88.999 31.83 89.191 31.338C89.395 30.846 89.497 30.3 89.497 29.7C89.497 29.1 89.395 28.554 89.191 28.062C88.999 27.57 88.723 27.144 88.363 26.784C88.015 26.424 87.601 26.148 87.121 25.956C86.641 25.764 86.119 25.668 85.555 25.668C84.991 25.668 84.469 25.764 83.989 25.956C83.521 26.148 83.107 26.424 82.747 26.784C82.387 27.144 82.105 27.57 81.901 28.062C81.709 28.554 81.613 29.1 81.613 29.7C81.613 30.288 81.709 30.834 81.901 31.338C82.105 31.83 82.381 32.256 82.729 32.616C83.089 32.976 83.509 33.252 83.989 33.444C84.469 33.636 84.991 33.732 85.555 33.732ZM94.6405 36V23.4H97.0525L104.486 32.472H103.316V23.4H106.196V36H103.802L96.3505 26.928H97.5205V36H94.6405ZM115.262 36.216C114.266 36.216 113.348 36.06 112.508 35.748C111.68 35.424 110.954 34.968 110.33 34.38C109.718 33.792 109.238 33.102 108.89 32.31C108.554 31.518 108.386 30.648 108.386 29.7C108.386 28.752 108.554 27.882 108.89 27.09C109.238 26.298 109.724 25.608 110.348 25.02C110.972 24.432 111.704 23.982 112.544 23.67C113.384 23.346 114.308 23.184 115.316 23.184C116.432 23.184 117.434 23.37 118.322 23.742C119.222 24.114 119.978 24.654 120.59 25.362L118.718 27.09C118.262 26.61 117.764 26.256 117.224 26.028C116.684 25.788 116.096 25.668 115.46 25.668C114.848 25.668 114.29 25.764 113.786 25.956C113.282 26.148 112.844 26.424 112.472 26.784C112.112 27.144 111.83 27.57 111.626 28.062C111.434 28.554 111.338 29.1 111.338 29.7C111.338 30.288 111.434 30.828 111.626 31.32C111.83 31.812 112.112 32.244 112.472 32.616C112.844 32.976 113.276 33.252 113.768 33.444C114.272 33.636 114.824 33.732 115.424 33.732C116 33.732 116.558 33.642 117.098 33.462C117.65 33.27 118.184 32.952 118.7 32.508L120.356 34.614C119.672 35.13 118.874 35.526 117.962 35.802C117.062 36.078 116.162 36.216 115.262 36.216ZM117.692 34.236V29.502H120.356V34.614L117.692 34.236ZM123.064 36V23.4H128.518C129.646 23.4 130.618 23.586 131.434 23.958C132.25 24.318 132.88 24.84 133.324 25.524C133.768 26.208 133.99 27.024 133.99 27.972C133.99 28.908 133.768 29.718 133.324 30.402C132.88 31.074 132.25 31.59 131.434 31.95C130.618 32.31 129.646 32.49 128.518 32.49H124.684L125.98 31.212V36H123.064ZM131.074 36L127.924 31.428H131.038L134.224 36H131.074ZM125.98 31.536L124.684 30.168H128.356C129.256 30.168 129.928 29.976 130.372 29.592C130.816 29.196 131.038 28.656 131.038 27.972C131.038 27.276 130.816 26.736 130.372 26.352C129.928 25.968 129.256 25.776 128.356 25.776H124.684L125.98 24.39V31.536ZM134.645 36L140.261 23.4H143.141L148.775 36H145.715L141.107 24.876H142.259L137.633 36H134.645ZM137.453 33.3L138.227 31.086H144.707L145.499 33.3H137.453ZM152.059 36V25.776H148.027V23.4H159.007V25.776H154.975V36H152.059ZM165.963 36.216C164.175 36.216 162.777 35.718 161.769 34.722C160.761 33.726 160.257 32.304 160.257 30.456V23.4H163.173V30.348C163.173 31.548 163.419 32.412 163.911 32.94C164.403 33.468 165.093 33.732 165.981 33.732C166.869 33.732 167.559 33.468 168.051 32.94C168.543 32.412 168.789 31.548 168.789 30.348V23.4H171.669V30.456C171.669 32.304 171.165 33.726 170.157 34.722C169.149 35.718 167.751 36.216 165.963 36.216ZM174.551 36V23.4H177.467V33.624H183.785V36H174.551ZM186.846 36V25.776H182.814V23.4H193.794V25.776H189.762V36H186.846ZM195.363 36V23.4H198.279V36H195.363ZM207.389 36.216C206.393 36.216 205.469 36.054 204.617 35.73C203.777 35.406 203.045 34.95 202.421 34.362C201.809 33.774 201.329 33.084 200.981 32.292C200.645 31.5 200.477 30.636 200.477 29.7C200.477 28.764 200.645 27.9 200.981 27.108C201.329 26.316 201.815 25.626 202.439 25.038C203.063 24.45 203.795 23.994 204.635 23.67C205.475 23.346 206.387 23.184 207.371 23.184C208.367 23.184 209.279 23.346 210.107 23.67C210.947 23.994 211.673 24.45 212.285 25.038C212.909 25.626 213.395 26.316 213.743 27.108C214.091 27.888 214.265 28.752 214.265 29.7C214.265 30.636 214.091 31.506 213.743 32.31C213.395 33.102 212.909 33.792 212.285 34.38C211.673 34.956 210.947 35.406 210.107 35.73C209.279 36.054 208.373 36.216 207.389 36.216ZM207.371 33.732C207.935 33.732 208.451 33.636 208.919 33.444C209.399 33.252 209.819 32.976 210.179 32.616C210.539 32.256 210.815 31.83 211.007 31.338C211.211 30.846 211.313 30.3 211.313 29.7C211.313 29.1 211.211 28.554 211.007 28.062C210.815 27.57 210.539 27.144 210.179 26.784C209.831 26.424 209.417 26.148 208.937 25.956C208.457 25.764 207.935 25.668 207.371 25.668C206.807 25.668 206.285 25.764 205.805 25.956C205.337 26.148 204.923 26.424 204.563 26.784C204.203 27.144 203.921 27.57 203.717 28.062C203.525 28.554 203.429 29.1 203.429 29.7C203.429 30.288 203.525 30.834 203.717 31.338C203.921 31.83 204.197 32.256 204.545 32.616C204.905 32.976 205.325 33.252 205.805 33.444C206.285 33.636 206.807 33.732 207.371 33.732ZM216.457 36V23.4H218.869L226.303 32.472H225.133V23.4H228.013V36H225.619L218.167 26.928H219.337V36H216.457ZM235.134 36.216C234.126 36.216 233.16 36.084 232.236 35.82C231.312 35.544 230.568 35.19 230.004 34.758L230.994 32.562C231.534 32.946 232.17 33.264 232.902 33.516C233.646 33.756 234.396 33.876 235.152 33.876C235.728 33.876 236.19 33.822 236.538 33.714C236.898 33.594 237.162 33.432 237.33 33.228C237.498 33.024 237.582 32.79 237.582 32.526C237.582 32.19 237.45 31.926 237.186 31.734C236.922 31.53 236.574 31.368 236.142 31.248C235.71 31.116 235.23 30.996 234.702 30.888C234.186 30.768 233.664 30.624 233.136 30.456C232.62 30.288 232.146 30.072 231.714 29.808C231.282 29.544 230.928 29.196 230.652 28.764C230.388 28.332 230.256 27.78 230.256 27.108C230.256 26.388 230.448 25.734 230.832 25.146C231.228 24.546 231.816 24.072 232.596 23.724C233.388 23.364 234.378 23.184 235.566 23.184C236.358 23.184 237.138 23.28 237.906 23.472C238.674 23.652 239.352 23.928 239.94 24.3L239.04 26.514C238.452 26.178 237.864 25.932 237.276 25.776C236.688 25.608 236.112 25.524 235.548 25.524C234.984 25.524 234.522 25.59 234.162 25.722C233.802 25.854 233.544 26.028 233.388 26.244C233.232 26.448 233.154 26.688 233.154 26.964C233.154 27.288 233.286 27.552 233.55 27.756C233.814 27.948 234.162 28.104 234.594 28.224C235.026 28.344 235.5 28.464 236.016 28.584C236.544 28.704 237.066 28.842 237.582 28.998C238.11 29.154 238.59 29.364 239.022 29.628C239.454 29.892 239.802 30.24 240.066 30.672C240.342 31.104 240.48 31.65 240.48 32.31C240.48 33.018 240.282 33.666 239.886 34.254C239.49 34.842 238.896 35.316 238.104 35.676C237.324 36.036 236.334 36.216 235.134 36.216Z" fill="white"/>
<path d="M0.19877 29.7761L45.0344 4.28777L44.6901 55.8607L0.19877 29.7761Z" fill="#117226"/>
<path d="M307.801 29.7761L262.966 4.28777L263.31 55.8607L307.801 29.7761Z" fill="#117226"/>
<defs>
<linearGradient id="paint0_linear_216_33" x1="42" y1="30" x2="264" y2="30" gradientUnits="userSpaceOnUse">
<stop stop-color="#116629"/>
<stop offset="0.535" stop-color="#12E200"/>
<stop offset="1" stop-color="#006E1F"/>
</linearGradient>
</defs>
</svg>
