<svg width="51" height="47" viewBox="0 0 51 47" fill="none" xmlns="http://www.w3.org/2000/svg">
<g opacity="0.2">
<path d="M14.7476 13.8612C15.2003 11.8966 17.8378 11.5272 18.8115 13.2935L21.1663 17.5613C21.3098 17.8217 21.5046 18.0503 21.739 18.2332C21.9734 18.4162 22.2426 18.5496 22.5301 18.6254C22.8176 18.7012 23.1175 18.7178 23.4116 18.6743C23.7057 18.6307 23.988 18.5279 24.2412 18.372L28.6686 15.6403C28.9874 15.4436 29.3512 15.3317 29.7254 15.3153C30.0996 15.2989 30.4718 15.3785 30.8066 15.5465C31.1414 15.7145 31.4277 15.9653 31.6382 16.2752C31.8487 16.585 31.9764 16.9435 32.0093 17.3167L32.4654 22.499C32.4918 22.7952 32.578 23.0829 32.7189 23.3447C32.8598 23.6066 33.0524 23.8371 33.285 24.0223C33.5176 24.2075 33.7854 24.3435 34.0721 24.4221C34.3589 24.5007 34.6586 24.5203 34.9532 24.4796L39.7822 23.8168C41.7803 23.5417 43.0605 25.8771 41.757 27.4122L33.3534 37.3038C33.035 37.6785 32.6001 37.9355 32.1183 38.0336C31.6364 38.1318 31.1356 38.0653 30.696 37.845L12.9934 28.9617C12.554 28.741 12.2014 28.3791 11.9921 27.9342C11.7828 27.4892 11.7289 26.9869 11.839 26.5077L14.7476 13.8612Z" fill="#859100"/>
<path fill-rule="evenodd" clip-rule="evenodd" d="M34.7356 28.8939C33.0748 28.9145 31.4676 28.307 30.2356 27.1931C29.0035 26.0791 28.2377 24.541 28.0914 22.8865L27.9465 21.2462L26.5447 22.1104C25.1311 22.9815 23.4408 23.2866 21.8118 22.9649C20.1829 22.6431 18.7355 21.7182 17.7592 20.375L16.506 25.8103L31.1232 33.1452L34.7356 28.8939ZM18.8115 13.2935C17.8378 11.5272 15.2003 11.8966 14.7486 13.8592L11.8409 26.5087C11.7309 26.9875 11.7847 27.4895 11.9936 27.9342C12.2025 28.3789 12.5545 28.7407 12.9934 28.9617L30.6941 37.844C31.1336 38.0644 31.6345 38.1308 32.1163 38.0326C32.5981 37.9345 33.0331 37.6775 33.3515 37.3028L41.754 27.4132C43.0586 25.8761 41.7783 23.5407 39.7803 23.8158L34.9512 24.4786C34.6567 24.5193 34.3569 24.4997 34.0702 24.4211C33.7834 24.3425 33.5156 24.2065 33.283 24.0213C33.0504 23.8361 32.8578 23.6056 32.7169 23.3437C32.576 23.0819 32.4898 22.7942 32.4634 22.498L32.0073 17.3157C31.9745 16.9426 31.8467 16.584 31.6362 16.2742C31.4257 15.9643 31.1395 15.7135 30.8047 15.5455C30.4699 15.3775 30.0977 15.2979 29.7234 15.3143C29.3492 15.3308 28.9854 15.4426 28.6666 15.6393L24.2412 18.372C23.988 18.5279 23.7057 18.6307 23.4116 18.6743C23.1175 18.7178 22.8176 18.7012 22.5301 18.6254C22.2426 18.5496 21.9734 18.4162 21.739 18.2332C21.5046 18.0503 21.3098 17.8217 21.1663 17.5613L18.8115 13.2935Z" fill="#859100"/>
<path d="M34.6428 12.798C34.3816 13.3185 33.9243 13.714 33.3715 13.8974C32.8187 14.0808 32.2156 14.0371 31.6951 13.7758C31.1745 13.5146 30.779 13.0573 30.5956 12.5045C30.4122 11.9516 30.456 11.3486 30.7172 10.8281C30.9784 10.3075 31.4357 9.912 31.9886 9.72862C32.5414 9.54523 33.1444 9.58896 33.665 9.85019C34.1855 10.1114 34.581 10.5687 34.7644 11.1216C34.9478 11.6744 34.9041 12.2774 34.6428 12.798ZM47.3941 24.1108C47.1328 24.6313 46.6755 25.0268 46.1227 25.2102C45.5699 25.3936 44.9669 25.3499 44.4463 25.0886C43.9257 24.8274 43.5302 24.3701 43.3468 23.8173C43.1635 23.2645 43.2072 22.6614 43.4684 22.1409C43.7296 21.6203 44.187 21.2248 44.7398 21.0414C45.2926 20.858 45.8956 20.9018 46.4162 21.163C46.9368 21.4242 47.3322 21.8815 47.5156 22.4344C47.699 22.9872 47.6553 23.5902 47.3941 24.1108Z" fill="#859100"/>
<path fill-rule="evenodd" clip-rule="evenodd" d="M10.066 31.1762C10.2619 30.7858 10.6049 30.4892 11.0195 30.3516C11.4341 30.2141 11.8864 30.2469 12.2768 30.4428L29.4259 39.0484C29.8164 39.2443 30.113 39.5873 30.2505 40.0019C30.3881 40.4165 30.3553 40.8688 30.1593 41.2592C29.9634 41.6496 29.6204 41.9462 29.2058 42.0838C28.7912 42.2213 28.3389 42.1885 27.9485 41.9926L10.7994 33.387C10.4089 33.1911 10.1123 32.8481 9.97479 32.4335C9.83725 32.0189 9.87005 31.5666 10.066 31.1762Z" fill="#859100"/>
<path d="M17.9524 9.33703C17.6912 9.8576 17.2339 10.2531 16.681 10.4365C16.1282 10.6198 15.5252 10.5761 15.0046 10.3149C14.4841 10.0537 14.0886 9.59634 13.9052 9.04352C13.7218 8.49071 13.7655 7.88769 14.0268 7.36712C14.288 6.84654 14.7453 6.45107 15.2981 6.26768C15.8509 6.0843 16.454 6.12803 16.9745 6.38925C17.4951 6.65048 17.8906 7.1078 18.074 7.66062C18.2574 8.21343 18.2136 8.81645 17.9524 9.33703Z" fill="#859100"/>
</g>
<path fill-rule="evenodd" clip-rule="evenodd" d="M29.6764 34.4283L38.3293 24.6029L32.5948 25.1898C31.451 25.3075 30.3067 24.9719 29.4076 24.2552C28.5085 23.5385 27.9263 22.4977 27.786 21.3565L27.0822 15.6248L22.0634 18.4873C21.0644 19.0565 19.8822 19.2113 18.7704 18.9184C17.6586 18.6256 16.7059 17.9085 16.117 16.9211L13.164 11.9748L10.4584 24.7846L29.6764 34.4283ZM15.0474 10.8461C14.0235 9.13084 11.4252 9.56413 11.0118 11.5189L8.30821 24.3297C8.20788 24.8045 8.2676 25.2991 8.47806 25.7363C8.68851 26.1735 9.03784 26.5287 9.47148 26.7465L28.6914 36.3911C29.1251 36.6087 29.6187 36.6764 30.095 36.5838C30.5713 36.4913 31.0036 36.2435 31.3242 35.8793L39.9791 26.0549C41.2973 24.5542 40.0927 22.215 38.1066 22.4174L32.3721 23.0043C31.8003 23.0634 31.2282 22.896 30.7785 22.538C30.3287 22.1801 30.0373 21.66 29.9667 21.0896L29.262 15.3549C29.2176 14.9962 29.0854 14.6539 28.877 14.3585C28.6686 14.0631 28.3905 13.8237 28.0674 13.6616C27.7443 13.4994 27.3862 13.4196 27.0248 13.429C26.6634 13.4385 26.31 13.5371 25.9958 13.716L20.977 16.5785C20.4776 16.8633 19.8864 16.9409 19.3304 16.7947C18.7744 16.6484 18.2979 16.29 18.0033 15.7963L15.0474 10.8461Z" fill="#859100"/>
<path d="M31.6442 11.1568C31.3978 11.649 30.9661 12.0232 30.4438 12.197C29.9216 12.3709 29.3517 12.3302 28.8595 12.0838C28.3673 11.8375 27.9931 11.4057 27.8193 10.8835C27.6454 10.3612 27.6861 9.79135 27.9325 9.29914C28.1788 8.80694 28.6106 8.43276 29.1328 8.25891C29.6551 8.08505 30.225 8.12578 30.7172 8.37212C31.2094 8.61845 31.5835 9.05023 31.7574 9.57246C31.9312 10.0947 31.8905 10.6646 31.6442 11.1568ZM44.6127 22.3108C44.3661 22.8029 43.9341 23.1768 43.4118 23.3504C42.8895 23.524 42.3196 23.483 41.8275 23.2364C41.3355 22.9898 40.9615 22.5578 40.7879 22.0355C40.6144 21.5131 40.6554 20.9433 40.902 20.4512C41.1488 19.9593 41.581 19.5855 42.1034 19.4122C42.6258 19.2389 43.1957 19.2803 43.6876 19.5271C44.1796 19.774 44.5533 20.2061 44.7266 20.7286C44.8999 21.251 44.8595 21.8189 44.6127 22.3108ZM14.9525 7.42713C14.8304 7.67078 14.6615 7.888 14.4555 8.06637C14.2494 8.24475 14.0103 8.38079 13.7516 8.46674C13.493 8.55268 13.22 8.58685 12.9482 8.56728C12.6763 8.54771 12.411 8.47479 12.1674 8.35269C11.9237 8.23059 11.7065 8.06169 11.5281 7.85564C11.3498 7.64959 11.2137 7.41042 11.1278 7.1518C11.0418 6.89317 11.0077 6.62015 11.0272 6.34832C11.0468 6.07649 11.1197 5.81118 11.2418 5.56753C11.4887 5.07559 11.9209 4.70186 12.4433 4.52856C12.9657 4.35527 13.5355 4.39659 14.0275 4.64345C14.5194 4.89031 14.8931 5.32248 15.0664 5.84489C15.2397 6.3673 15.1994 6.93519 14.9525 7.42713Z" fill="#859100"/>
<path fill-rule="evenodd" clip-rule="evenodd" d="M8.59346 29.2099C8.72407 28.9496 8.95274 28.7519 9.22914 28.6602C9.50555 28.5685 9.80706 28.5904 10.0673 28.721L27.2165 37.3265C27.4768 37.4572 27.6745 37.6858 27.7662 37.9622C27.8579 38.2386 27.836 38.5402 27.7054 38.8004C27.5748 39.0607 27.3461 39.2585 27.0697 39.3502C26.7933 39.4418 26.4918 39.42 26.2315 39.2894L9.08239 30.6838C8.82211 30.5532 8.62437 30.3245 8.53267 30.0481C8.44098 29.7717 8.46285 29.4702 8.59346 29.2099Z" fill="#859100"/>
</svg>
