<svg width="34" height="21" viewBox="0 0 34 21" fill="none" xmlns="http://www.w3.org/2000/svg">
<path fill-rule="evenodd" clip-rule="evenodd" d="M10.625 3.15H23.375C25.3475 3.15 27.2393 3.92437 28.6341 5.30277C30.0289 6.68116 30.8125 8.55066 30.8125 10.5C30.8125 12.4493 30.0289 14.3188 28.6341 15.6972C27.2393 17.0756 25.3475 17.85 23.375 17.85H10.625C8.65245 17.85 6.76069 17.0756 5.36589 15.6972C3.97109 14.3188 3.1875 12.4493 3.1875 10.5C3.1875 8.55066 3.97109 6.68116 5.36589 5.30277C6.76069 3.92437 8.65245 3.15 10.625 3.15ZM0 10.5C0 7.71523 1.11942 5.04451 3.11199 3.07538C5.10456 1.10625 7.80707 0 10.625 0H23.375C26.1929 0 28.8954 1.10625 30.888 3.07538C32.8806 5.04451 34 7.71523 34 10.5C34 13.2848 32.8806 15.9555 30.888 17.9246C28.8954 19.8938 26.1929 21 23.375 21H10.625C7.80707 21 5.10456 19.8938 3.11199 17.9246C1.11942 15.9555 0 13.2848 0 10.5ZM23.375 12.6C23.9386 12.6 24.4791 12.3787 24.8776 11.9849C25.2761 11.5911 25.5 11.057 25.5 10.5C25.5 9.94304 25.2761 9.4089 24.8776 9.01508C24.4791 8.62125 23.9386 8.4 23.375 8.4C22.8114 8.4 22.2709 8.62125 21.8724 9.01508C21.4739 9.4089 21.25 9.94304 21.25 10.5C21.25 11.057 21.4739 11.5911 21.8724 11.9849C22.2709 12.3787 22.8114 12.6 23.375 12.6ZM19.125 10.5C19.125 11.057 18.9011 11.5911 18.5026 11.9849C18.1041 12.3787 17.5636 12.6 17 12.6C16.4364 12.6 15.8959 12.3787 15.4974 11.9849C15.0989 11.5911 14.875 11.057 14.875 10.5C14.875 9.94304 15.0989 9.4089 15.4974 9.01508C15.8959 8.62125 16.4364 8.4 17 8.4C17.5636 8.4 18.1041 8.62125 18.5026 9.01508C18.9011 9.4089 19.125 9.94304 19.125 10.5ZM10.625 12.6C11.1886 12.6 11.7291 12.3787 12.1276 11.9849C12.5261 11.5911 12.75 11.057 12.75 10.5C12.75 9.94304 12.5261 9.4089 12.1276 9.01508C11.7291 8.62125 11.1886 8.4 10.625 8.4C10.0614 8.4 9.52091 8.62125 9.1224 9.01508C8.72388 9.4089 8.5 9.94304 8.5 10.5C8.5 11.057 8.72388 11.5911 9.1224 11.9849C9.52091 12.3787 10.0614 12.6 10.625 12.6Z" fill="white"/>
</svg>
