<svg width="62" height="59" viewBox="0 0 62 59" fill="none" xmlns="http://www.w3.org/2000/svg">
<path d="M58.0212 25.6322H13.5776L32.9943 6.65817C34.546 5.14181 34.546 2.65342 32.9943 1.13705C32.6262 0.776612 32.189 0.490651 31.7076 0.29554C31.2263 0.100429 30.7103 0 30.1892 0C29.6681 0 29.1521 0.100429 28.6708 0.29554C28.1894 0.490651 27.7522 0.776612 27.3841 1.13705L1.16359 26.7597C0.794735 27.1194 0.502102 27.5467 0.302438 28.017C0.102774 28.4874 0 28.9916 0 29.5008C0 30.01 0.102774 30.5143 0.302438 30.9846C0.502102 31.455 0.794735 31.8822 1.16359 32.2419L27.3841 57.8646C27.7525 58.2246 28.1898 58.5101 28.6711 58.7049C29.1524 58.8997 29.6682 59 30.1892 59C30.7102 59 31.226 58.8997 31.7073 58.7049C32.1886 58.5101 32.6259 58.2246 32.9943 57.8646C33.3626 57.5046 33.6549 57.0773 33.8542 56.607C34.0536 56.1366 34.1562 55.6325 34.1562 55.1235C34.1562 54.6144 34.0536 54.1103 33.8542 53.64C33.6549 53.1697 33.3626 52.7423 32.9943 52.3824L13.5776 33.4084H58.0212C60.2095 33.4084 62 31.6587 62 29.5203C62 27.3818 60.2095 25.6322 58.0212 25.6322Z" fill="#28FF15"/>
</svg>
