<svg width="37" height="37" viewBox="0 0 37 37" fill="none" xmlns="http://www.w3.org/2000/svg">
<path d="M30.3478 37L28.9558 35.608L33.1135 31.3594H23.2666V29.3362H33.1135L28.9558 25.0875L30.3478 23.6955L37 30.3478L30.3478 37ZM3.26744 32.371C2.33678 32.371 1.55987 32.0594 0.936734 31.4362C0.312244 30.8118 0 30.0342 0 29.1035V3.26744C0 2.33678 0.312244 1.55987 0.936734 0.936734C1.55987 0.312244 2.33678 0 3.26744 0H29.1035C30.0342 0 30.8111 0.312244 31.4342 0.936734C32.0587 1.55987 32.371 2.33678 32.371 3.26744V19.0726C32.0526 18.9916 31.7222 18.9309 31.3796 18.8905C31.0357 18.85 30.6877 18.8298 30.3356 18.8298C27.1457 18.8298 24.4306 19.9499 22.1903 22.1903C19.9513 24.4293 18.8318 27.1484 18.8318 30.3478C18.8318 30.7025 18.852 31.0485 18.8925 31.3857C18.933 31.7229 18.993 32.0513 19.0726 32.371H3.26744ZM15.1739 25.2898H17.1971V17.1971H25.2898V15.1739H17.1971V7.08115H15.1739V15.1739H7.08115V17.1971H15.1739V25.2898Z" fill="#1DAA45"/>
</svg>
