<svg width="183" height="113" viewBox="0 0 183 113" fill="none" xmlns="http://www.w3.org/2000/svg">
<path fill-rule="evenodd" clip-rule="evenodd" d="M57.1875 16.95H125.812C136.429 16.95 146.612 21.1169 154.119 28.5339C161.626 35.951 165.844 46.0107 165.844 56.5C165.844 66.9893 161.626 77.049 154.119 84.4661C146.612 91.8831 136.429 96.05 125.812 96.05H57.1875C46.5706 96.05 36.3884 91.8831 28.8811 84.4661C21.3738 77.049 17.1562 66.9893 17.1562 56.5C17.1562 46.0107 21.3738 35.951 28.8811 28.5339C36.3884 21.1169 46.5706 16.95 57.1875 16.95ZM0 56.5C0 41.5153 6.02509 27.1443 16.7498 16.5485C27.4746 5.95266 42.0204 0 57.1875 0H125.812C140.98 0 155.525 5.95266 166.25 16.5485C176.975 27.1443 183 41.5153 183 56.5C183 71.4847 176.975 85.8557 166.25 96.4515C155.525 107.047 140.98 113 125.812 113H57.1875C42.0204 113 27.4746 107.047 16.7498 96.4515C6.02509 85.8557 0 71.4847 0 56.5ZM125.812 67.8C128.846 67.8 131.755 66.6095 133.9 64.4903C136.045 62.3711 137.25 59.4969 137.25 56.5C137.25 53.5031 136.045 50.6289 133.9 48.5097C131.755 46.3905 128.846 45.2 125.812 45.2C122.779 45.2 119.87 46.3905 117.725 48.5097C115.58 50.6289 114.375 53.5031 114.375 56.5C114.375 59.4969 115.58 62.3711 117.725 64.4903C119.87 66.6095 122.779 67.8 125.812 67.8ZM102.938 56.5C102.938 59.4969 101.732 62.3711 99.5875 64.4903C97.4426 66.6095 94.5334 67.8 91.5 67.8C88.4666 67.8 85.5574 66.6095 83.4125 64.4903C81.2675 62.3711 80.0625 59.4969 80.0625 56.5C80.0625 53.5031 81.2675 50.6289 83.4125 48.5097C85.5574 46.3905 88.4666 45.2 91.5 45.2C94.5334 45.2 97.4426 46.3905 99.5875 48.5097C101.732 50.6289 102.938 53.5031 102.938 56.5ZM57.1875 67.8C60.2209 67.8 63.1301 66.6095 65.275 64.4903C67.42 62.3711 68.625 59.4969 68.625 56.5C68.625 53.5031 67.42 50.6289 65.275 48.5097C63.1301 46.3905 60.2209 45.2 57.1875 45.2C54.1541 45.2 51.2449 46.3905 49.1 48.5097C46.955 50.6289 45.75 53.5031 45.75 56.5C45.75 59.4969 46.955 62.3711 49.1 64.4903C51.2449 66.6095 54.1541 67.8 57.1875 67.8Z" fill="black"/>
</svg>
